<svg width="58" height="58" viewBox="0 0 58 58" fill="none" xmlns="http://www.w3.org/2000/svg">
<path d="M29.0007 4.06683C33.932 4.06683 38.7526 5.52914 42.8529 8.26885C46.9531 11.0086 50.1489 14.9026 52.0361 19.4586C53.9232 24.0146 54.417 29.0278 53.4549 33.8644C52.4928 38.701 50.1182 43.1437 46.6312 46.6307C43.1442 50.1177 38.7015 52.4924 33.8649 53.4544C29.0283 54.4165 24.0151 53.9227 19.4591 52.0356C14.9031 50.1484 11.0091 46.9526 8.26935 42.8524C5.52964 38.7521 4.06733 33.9315 4.06733 29.0002C4.06733 22.3874 6.69423 16.0455 11.3701 11.3696C16.046 6.69373 22.3879 4.06683 29.0007 4.06683ZM26.5207 32.9468L18.334 24.7335C17.8557 24.2854 17.2292 24.0291 16.574 24.0135C16.0818 24.0184 15.602 24.168 15.1943 24.4438C14.7867 24.7195 14.4692 25.1092 14.2815 25.5642C14.0938 26.0192 14.0442 26.5193 14.1389 27.0023C14.2336 27.4853 14.4684 27.9297 14.814 28.2802L24.7607 38.2535C25.249 38.6883 25.8801 38.9286 26.534 38.9286C27.1879 38.9286 27.819 38.6883 28.3073 38.2535L43.2407 23.2935C43.5863 22.9431 43.821 22.4986 43.9157 22.0157C44.0104 21.5327 43.9609 21.0325 43.7732 20.5775C43.5855 20.1225 43.268 19.7328 42.8603 19.4571C42.4527 19.1813 41.9728 19.0317 41.4807 19.0268C40.8255 19.0424 40.1989 19.2987 39.7207 19.7468L26.5473 33.0802M29.0007 0.333496C23.3309 0.333496 17.7885 2.01477 13.0743 5.1647C8.36011 8.31463 4.68583 12.7918 2.51612 18.0299C0.346405 23.2681 -0.22129 29.032 0.884819 34.5928C1.99093 40.1535 4.72116 45.2615 8.73027 49.2706C12.7394 53.2797 17.8473 56.0099 23.4081 57.116C28.9689 58.2221 34.7328 57.6544 39.9709 55.4847C45.2091 53.315 49.6862 49.6407 52.8361 44.9265C55.9861 40.2123 57.6673 34.6699 57.6673 29.0002C57.6603 21.3995 54.6378 14.1121 49.2633 8.73757C43.8887 3.36305 36.6014 0.340557 29.0007 0.333496Z" fill="#50CD89"/>
</svg>
