<svg width="32" height="33" viewBox="0 0 32 33" fill="none" xmlns="http://www.w3.org/2000/svg">
<g clip-path="url(#clip0_877_4598)">
<path d="M28.1904 0.237946H3.80948C1.70891 0.237946 -3.8147e-05 1.9469 -3.8147e-05 4.04747V28.4284C-3.8147e-05 30.529 1.70891 32.2379 3.80948 32.2379H28.1904C30.291 32.2379 32 30.529 32 28.4284V4.04747C32 1.9469 30.291 0.237946 28.1904 0.237946ZM25.1474 14.1983C24.9726 14.2153 24.7972 14.2242 24.6217 14.225C23.6738 14.2251 22.7408 13.9892 21.9069 13.5385C21.073 13.0879 20.3645 12.4367 19.8453 11.6437V20.4337C19.8453 21.7187 19.4643 22.9748 18.7504 24.0432C18.0365 25.1115 17.0219 25.9442 15.8347 26.436C14.6476 26.9277 13.3413 27.0564 12.0811 26.8057C10.8208 26.555 9.66321 25.9362 8.75463 25.0276C7.84604 24.1191 7.22728 22.9615 6.9766 21.7012C6.72592 20.441 6.85458 19.1347 7.34631 17.9475C7.83803 16.7604 8.67074 15.7458 9.73912 15.0319C10.8075 14.318 12.0636 13.937 13.3485 13.937C13.4841 13.937 13.6167 13.9492 13.7501 13.9576V17.1591C13.6167 17.1431 13.4857 17.1187 13.3485 17.1187C12.4691 17.1187 11.6257 17.468 11.0039 18.0899C10.3821 18.7117 10.0327 19.5551 10.0327 20.4345C10.0327 21.3139 10.3821 22.1573 11.0039 22.7791C11.6257 23.401 12.4691 23.7503 13.3485 23.7503C15.1801 23.7503 16.7977 22.3073 16.7977 20.4757L16.8297 5.5469H19.8925C20.0325 6.87771 20.6357 8.11698 21.5969 9.04803C22.558 9.97909 23.8158 10.5427 25.1504 10.6402V14.1983" fill="black"/>
</g>
<defs>
<clipPath id="clip0_877_4598">
<rect width="32" height="32" fill="white" transform="translate(0 0.237976)"/>
</clipPath>
</defs>
</svg>
