<svg width="32" height="33" viewBox="0 0 32 33" fill="none" xmlns="http://www.w3.org/2000/svg">
<g clip-path="url(#clip0_877_4543)">
<path d="M26.2764 32.2644C19.4473 32.993 12.56 32.993 5.7309 32.2644C4.40476 32.1243 3.16668 31.534 2.22307 30.5917C1.27947 29.6494 0.687355 28.4122 0.545451 27.0862C-0.183129 20.2571 -0.183129 13.3699 0.545451 6.54076C0.685494 5.21461 1.27587 3.97653 2.21815 3.03292C3.16043 2.08932 4.39768 1.49721 5.72363 1.3553C12.5527 0.626724 19.44 0.626724 26.2691 1.3553C27.5952 1.49535 28.8333 2.08572 29.7769 3.028C30.7205 3.97028 31.3126 5.20753 31.4545 6.53348C32.1831 13.3626 32.1831 20.2498 31.4545 27.0789C31.3145 28.4051 30.7241 29.6432 29.7818 30.5868C28.8396 31.5304 27.6023 32.1225 26.2764 32.2644Z" fill="#29A71A"/>
<path d="M23.0545 9.75529C21.3899 8.07402 19.1792 7.04295 16.8213 6.84806C14.4634 6.65318 12.1134 7.30731 10.1953 8.69246C8.27718 10.0776 6.91719 12.1026 6.36062 14.4022C5.80406 16.7018 6.08756 19.1245 7.16 21.2335L6.10727 26.3444C6.09635 26.3953 6.09604 26.4478 6.10636 26.4988C6.11669 26.5498 6.13742 26.5981 6.16727 26.6408C6.211 26.7054 6.27341 26.7552 6.34619 26.7835C6.41896 26.8117 6.49863 26.8171 6.57454 26.7989L11.5836 25.6117C13.6867 26.6569 16.0923 26.9222 18.3726 26.3603C20.6528 25.7983 22.6598 24.4456 24.0363 22.5429C25.4128 20.6401 26.0696 18.3107 25.8898 15.9691C25.7101 13.6275 24.7054 11.4256 23.0545 9.75529ZM21.4927 22.2207C20.3409 23.3693 18.8578 24.1275 17.2523 24.3884C15.6468 24.6494 13.9999 24.3999 12.5436 23.6753L11.8455 23.3298L8.77454 24.0571L8.78363 24.0189L9.42 20.928L9.07818 20.2535C8.33411 18.7922 8.07162 17.1328 8.32834 15.5132C8.58505 13.8936 9.34778 12.3967 10.5073 11.2371C11.9642 9.78065 13.9399 8.96245 16 8.96245C18.0601 8.96245 20.0358 9.78065 21.4927 11.2371C21.5051 11.2513 21.5185 11.2647 21.5327 11.2771C22.9716 12.7373 23.7748 14.7072 23.7673 16.7572C23.7598 18.8072 22.9422 20.7711 21.4927 22.2207Z" fill="white"/>
<path d="M21.22 19.9535C20.8436 20.5462 20.2491 21.2717 19.5018 21.4517C18.1927 21.768 16.1836 21.4626 13.6836 19.1317L13.6527 19.1044C11.4545 17.0662 10.8836 15.3699 11.0218 14.0244C11.0982 13.2608 11.7345 12.5699 12.2709 12.1189C12.3557 12.0466 12.4563 11.995 12.5645 11.9685C12.6728 11.9419 12.7858 11.9411 12.8945 11.966C13.0031 11.9909 13.1044 12.0409 13.1903 12.112C13.2762 12.183 13.3443 12.2732 13.3891 12.3753L14.1982 14.1935C14.2508 14.3114 14.2702 14.4414 14.2545 14.5695C14.2388 14.6976 14.1886 14.819 14.1091 14.9208L13.7 15.4517C13.6122 15.5613 13.5592 15.6947 13.5479 15.8347C13.5366 15.9746 13.5674 16.1148 13.6364 16.2371C13.8655 16.6389 14.4145 17.2299 15.0236 17.7771C15.7073 18.3953 16.4654 18.9608 16.9454 19.1535C17.0739 19.206 17.2151 19.2188 17.3509 19.1902C17.4867 19.1617 17.6108 19.0932 17.7073 18.9935L18.1818 18.5153C18.2734 18.425 18.3873 18.3606 18.5118 18.3287C18.6364 18.2967 18.7672 18.2984 18.8909 18.3335L20.8127 18.8789C20.9187 18.9115 21.0159 18.9678 21.0968 19.0436C21.1777 19.1195 21.2402 19.2128 21.2795 19.3165C21.3188 19.4202 21.3339 19.5315 21.3236 19.6419C21.3132 19.7523 21.2778 19.8589 21.22 19.9535Z" fill="white"/>
</g>
<defs>
<clipPath id="clip0_877_4543">
<rect width="32" height="32" fill="white" transform="translate(0 0.809845)"/>
</clipPath>
</defs>
</svg>
