<svg width="50" height="50" viewBox="0 0 50 50" fill="none" xmlns="http://www.w3.org/2000/svg">
<path d="M12.5 0C10.7812 0 9.375 1.40625 9.375 3.125V46.875C9.375 48.5938 10.7812 50 12.5 50H43.75C45.4688 50 46.875 48.5938 46.875 46.875V12.5L34.375 0H12.5Z" fill="#E2E5E7"/>
<path d="M37.5 12.5H46.875L34.375 0V9.375C34.375 11.0938 35.7812 12.5 37.5 12.5Z" fill="#B0B7BD"/>
<path d="M46.875 21.875L37.5 12.5H46.875V21.875Z" fill="#CAD1D8"/>
<path d="M40.625 40.625C40.625 41.4844 39.9219 42.1875 39.0625 42.1875H4.6875C3.82812 42.1875 3.125 41.4844 3.125 40.625V25C3.125 24.1406 3.82812 23.4375 4.6875 23.4375H39.0625C39.9219 23.4375 40.625 24.1406 40.625 25V40.625Z" fill="#50BEE8"/>
<path d="M13.8647 29.6049C13.8647 28.5549 15.5147 28.5549 15.5147 29.6049V34.5393C15.5147 36.5018 14.5772 37.6893 12.4163 37.6893C11.3538 37.6893 10.4678 37.4002 9.69282 36.4018C9.05532 35.6393 10.2553 34.5408 10.9053 35.3393C11.4303 35.9893 11.9928 36.1393 12.5413 36.1143C13.2397 36.0893 13.8538 35.7752 13.8663 34.5393V29.6049H13.8647Z" fill="white"/>
<path d="M17.7109 29.6047C17.7109 29.1922 18.0359 28.7422 18.5609 28.7422H21.4469C23.0719 28.7422 24.5344 29.8297 24.5344 31.9141C24.5344 33.8891 23.0719 34.9891 21.4469 34.9891H19.3609V36.6391C19.3609 37.1891 19.0109 37.5 18.5609 37.5C18.1484 37.5 17.7109 37.1891 17.7109 36.6391V29.6047ZM19.3609 30.3156V33.4281H21.4469C22.2844 33.4281 22.9469 32.6891 22.9469 31.9141C22.9469 31.0406 22.2844 30.3156 21.4469 30.3156H19.3609Z" fill="white"/>
<path d="M33.4559 36.5391C32.5684 37.2766 31.4809 37.5891 30.3824 37.5891C27.7574 37.5891 25.8965 36.0906 25.8965 33.1156C25.8965 30.5937 27.859 28.6328 30.4934 28.6328C31.4809 28.6328 32.5668 28.9687 33.3418 29.7312C34.1027 30.4797 33.0043 31.5922 32.2559 30.9312C31.7934 30.4812 31.1434 30.1437 30.4934 30.1437C28.9824 30.1437 27.5215 31.3547 27.5215 33.1156C27.5215 34.9656 28.7449 36.0906 30.3824 36.0906C31.1434 36.0906 31.7934 35.8641 32.2559 35.5281V33.9922H30.3824C29.2699 33.9922 29.3824 32.4672 30.3824 32.4672H32.8809C33.3434 32.4672 33.7668 32.8172 33.7668 33.2047V35.8656C33.7668 36.0906 33.6684 36.3 33.4559 36.5391Z" fill="white"/>
<path d="M39.0625 42.1875H9.375V43.75H39.0625C39.9219 43.75 40.625 43.0469 40.625 42.1875V40.625C40.625 41.4844 39.9219 42.1875 39.0625 42.1875Z" fill="#CAD1D8"/>
</svg>
