<svg width="25" height="24" viewBox="0 0 25 24" fill="none" xmlns="http://www.w3.org/2000/svg">
<g opacity="0.3">
<path d="M18.4066 3.5H6.92663C4.57389 3.5 2.66663 5.40727 2.66663 7.76V16.24C2.66663 18.5927 4.57389 20.5 6.92663 20.5H18.4066C20.7594 20.5 22.6666 18.5927 22.6666 16.24V7.76C22.6666 5.40727 20.7594 3.5 18.4066 3.5Z" fill="#A1A5B7"/>
</g>
<path d="M12.6666 13C11.8704 12.9969 11.1 12.7177 10.4866 12.21L7.08664 9.39998C6.93414 9.26737 6.84056 9.07961 6.8265 8.87801C6.81243 8.67641 6.87903 8.47748 7.01163 8.32498C7.14424 8.17248 7.332 8.0789 7.5336 8.06484C7.7352 8.05077 7.93414 8.11737 8.08664 8.24998L11.4666 11.06C11.811 11.3498 12.2466 11.5087 12.6966 11.5087C13.1467 11.5087 13.5823 11.3498 13.9266 11.06L17.2166 8.26998C17.3629 8.15529 17.547 8.09984 17.7323 8.11466C17.9175 8.12948 18.0905 8.21349 18.2166 8.34998C18.3445 8.50205 18.4077 8.69816 18.3928 8.89629C18.3778 9.09442 18.2859 9.27882 18.1366 9.40998L14.8466 12.2C14.2368 12.715 13.4648 12.9983 12.6666 13Z" fill="#A1A5B7"/>
</svg>
