<svg width="25" height="24" viewBox="0 0 25 24" fill="none" xmlns="http://www.w3.org/2000/svg">
<path opacity="0.3" d="M21.7234 10.53L20.3334 9.12002C20.2365 9.02506 20.1599 8.91137 20.1083 8.78587C20.0568 8.66037 20.0313 8.52569 20.0334 8.39002V6.39002C20.0321 6.11603 19.9767 5.84499 19.8703 5.59247C19.7639 5.33996 19.6087 5.11095 19.4136 4.9186C19.2184 4.72625 18.9872 4.57435 18.7332 4.47163C18.4792 4.36891 18.2074 4.31739 17.9334 4.32002H15.9334C15.7977 4.32216 15.663 4.29666 15.5375 4.24509C15.4121 4.19351 15.2984 4.11694 15.2034 4.02002L13.8034 2.61002C13.4134 2.22043 12.8847 2.00159 12.3334 2.00159C11.7821 2.00159 11.2534 2.22043 10.8634 2.61002L9.4534 4.00002C9.35844 4.09694 9.24474 4.17351 9.11925 4.22509C8.99375 4.27666 8.85906 4.30216 8.7234 4.30002H6.7234C6.4494 4.30133 6.17836 4.35676 5.92585 4.46312C5.67333 4.56949 5.44432 4.7247 5.25198 4.91984C5.05963 5.11497 4.90773 5.34619 4.805 5.60021C4.70228 5.85422 4.65076 6.12604 4.6534 6.40002V8.40002C4.65553 8.53569 4.63004 8.67037 4.57846 8.79587C4.52689 8.92137 4.45031 9.03506 4.3534 9.13002L2.9434 10.53C2.5538 10.92 2.33496 11.4488 2.33496 12C2.33496 12.5513 2.5538 13.08 2.9434 13.47L4.3334 14.88C4.43031 14.975 4.50689 15.0887 4.55846 15.2142C4.61004 15.3397 4.63553 15.4744 4.6334 15.61V17.61C4.6347 17.884 4.69013 18.1551 4.7965 18.4076C4.90286 18.6601 5.05807 18.8891 5.25321 19.0814C5.44835 19.2738 5.67957 19.4257 5.93358 19.5284C6.1876 19.6311 6.45941 19.6827 6.7334 19.68H8.7334C8.86906 19.6779 9.00375 19.7034 9.12924 19.755C9.25474 19.8065 9.36844 19.8831 9.4634 19.98L10.8734 21.39C11.2634 21.7796 11.7921 21.9985 12.3434 21.9985C12.8947 21.9985 13.4234 21.7796 13.8134 21.39L15.2134 20C15.3084 19.9031 15.422 19.8265 15.5475 19.775C15.673 19.7234 15.8077 19.6979 15.9434 19.7H17.9434C18.495 19.7 19.0241 19.4809 19.4142 19.0908C19.8043 18.7007 20.0234 18.1717 20.0234 17.62V15.62C20.0213 15.4844 20.0468 15.3497 20.0983 15.2242C20.1499 15.0987 20.2265 14.985 20.3234 14.89L21.7334 13.48C21.9272 13.2861 22.0807 13.0557 22.1851 12.8022C22.2895 12.5487 22.3428 12.2771 22.3419 12.0029C22.3409 11.7288 22.2858 11.4575 22.1797 11.2047C22.0735 10.952 21.9185 10.7227 21.7234 10.53Z" fill="#A1A5B7"/>
<path d="M9.33337 15.75C9.23459 15.7522 9.13642 15.7338 9.04516 15.6959C8.95389 15.658 8.87154 15.6015 8.80337 15.53C8.66292 15.3894 8.58403 15.1988 8.58403 15C8.58403 14.8012 8.66292 14.6106 8.80337 14.47L14.8034 8.47C14.944 8.32955 15.1346 8.25066 15.3334 8.25066C15.5321 8.25066 15.7227 8.32955 15.8634 8.47C16.0038 8.61063 16.0827 8.80125 16.0827 9C16.0827 9.19875 16.0038 9.38937 15.8634 9.53L9.86337 15.53C9.79413 15.6001 9.71158 15.6557 9.62057 15.6935C9.52956 15.7312 9.43192 15.7505 9.33337 15.75ZM9.33337 8C9.13559 8 8.94225 8.05865 8.7778 8.16853C8.61335 8.27841 8.48518 8.43459 8.40949 8.61732C8.33381 8.80004 8.314 9.00111 8.35259 9.19509C8.39117 9.38907 8.48642 9.56725 8.62627 9.70711C8.76612 9.84696 8.9443 9.9422 9.13828 9.98079C9.33227 10.0194 9.53333 9.99957 9.71606 9.92388C9.89878 9.84819 10.055 9.72002 10.1648 9.55557C10.2747 9.39112 10.3334 9.19778 10.3334 9C10.3334 8.73478 10.228 8.48043 10.0405 8.29289C9.85294 8.10536 9.59859 8 9.33337 8ZM15.3334 14C15.1356 14 14.9423 14.0586 14.7778 14.1685C14.6134 14.2784 14.4852 14.4346 14.4095 14.6173C14.3338 14.8 14.314 15.0011 14.3526 15.1951C14.3912 15.3891 14.4864 15.5673 14.6263 15.7071C14.7661 15.847 14.9443 15.9422 15.1383 15.9808C15.3323 16.0194 15.5333 15.9996 15.7161 15.9239C15.8988 15.8482 16.055 15.72 16.1648 15.5556C16.2747 15.3911 16.3334 15.1978 16.3334 15C16.3334 14.7348 16.228 14.4804 16.0405 14.2929C15.8529 14.1054 15.5986 14 15.3334 14Z" fill="#A1A5B7"/>
</svg>
