<svg width="24" height="24" viewBox="0 0 24 24" fill="none" xmlns="http://www.w3.org/2000/svg">
<path d="M18.27 10.79H2V12.74H18.27V10.79Z" fill="#A1A5B7"/>
<path opacity="0.3" d="M15.75 7.91998H4.52C3.12824 7.91998 2 9.04822 2 10.44V16.79C2 18.1817 3.12824 19.31 4.52 19.31H15.75C17.1418 19.31 18.27 18.1817 18.27 16.79V10.44C18.27 9.04822 17.1418 7.91998 15.75 7.91998Z" fill="#A1A5B7"/>
<path d="M19.48 4.69H8.24998C7.58163 4.69 6.94066 4.9555 6.46807 5.42809C5.99548 5.90069 5.72998 6.54166 5.72998 7.21V7.92H15.73C16.3983 7.92 17.0393 8.1855 17.5119 8.65809C17.9845 9.13068 18.25 9.77166 18.25 10.44V16.08H19.46C19.7926 16.0826 20.1224 16.0194 20.4305 15.8939C20.7385 15.7685 21.0187 15.5833 21.2548 15.349C21.491 15.1148 21.6784 14.8361 21.8063 14.529C21.9342 14.222 22 13.8926 22 13.56V7.21C22 6.54166 21.7345 5.90069 21.2619 5.42809C20.7893 4.9555 20.1483 4.69 19.48 4.69Z" fill="#A1A5B7"/>
<path d="M15.7 16.31H14.49C14.2911 16.31 14.1003 16.231 13.9597 16.0903C13.819 15.9497 13.74 15.7589 13.74 15.56C13.74 15.3611 13.819 15.1703 13.9597 15.0297C14.1003 14.889 14.2911 14.81 14.49 14.81H15.7C15.8989 14.81 16.0897 14.889 16.2303 15.0297C16.371 15.1703 16.45 15.3611 16.45 15.56C16.45 15.7589 16.371 15.9497 16.2303 16.0903C16.0897 16.231 15.8989 16.31 15.7 16.31Z" fill="#A1A5B7"/>
<path d="M7.45001 16.31H4.57001C4.3711 16.31 4.18033 16.231 4.03968 16.0903C3.89903 15.9497 3.82001 15.7589 3.82001 15.56C3.82001 15.3611 3.89903 15.1703 4.03968 15.0297C4.18033 14.889 4.3711 14.81 4.57001 14.81H7.45001C7.64892 14.81 7.83968 14.889 7.98034 15.0297C8.12099 15.1703 8.20001 15.3611 8.20001 15.56C8.20001 15.7589 8.12099 15.9497 7.98034 16.0903C7.83968 16.231 7.64892 16.31 7.45001 16.31Z" fill="#A1A5B7"/>
</svg>
