<svg width="25" height="24" viewBox="0 0 25 24" fill="none" xmlns="http://www.w3.org/2000/svg">
<path opacity="0.3" d="M12.6666 22C18.1895 22 22.6666 17.5228 22.6666 12C22.6666 6.47715 18.1895 2 12.6666 2C7.14378 2 2.66663 6.47715 2.66663 12C2.66663 17.5228 7.14378 22 12.6666 22Z" fill="#A1A5B7"/>
<path d="M12.6666 13.94C14.7653 13.94 16.4666 12.2387 16.4666 10.14C16.4666 8.04131 14.7653 6.34 12.6666 6.34C10.568 6.34 8.86664 8.04131 8.86664 10.14C8.86664 12.2387 10.568 13.94 12.6666 13.94Z" fill="#A1A5B7"/>
<path d="M12.6666 22C15.0523 22.0027 17.3594 21.1473 19.1666 19.59C18.6981 18.2393 17.8203 17.0681 16.6554 16.2392C15.4905 15.4103 14.0963 14.9649 12.6666 14.9649C11.2369 14.9649 9.84273 15.4103 8.67783 16.2392C7.51293 17.0681 6.6352 18.2393 6.16663 19.59C7.97388 21.1473 10.281 22.0027 12.6666 22Z" fill="#A1A5B7"/>
</svg>
