<svg width="22" height="20" viewBox="0 0 22 20" fill="none" xmlns="http://www.w3.org/2000/svg">
<path d="M4.75 0H12.19C12.6356 0 13.0629 0.177 13.3779 0.492061C13.693 0.807122 13.87 1.23444 13.87 1.68V10.31C13.8713 10.5315 13.8288 10.751 13.745 10.956C13.6612 11.161 13.5376 11.3473 13.3815 11.5044C13.2254 11.6615 13.0397 11.7861 12.8352 11.8712C12.6307 11.9562 12.4115 12 12.19 12H0.869995V3.88C0.869995 2.85096 1.27878 1.86407 2.00642 1.13643C2.73406 0.408785 3.72096 0 4.75 0Z" fill="#A1A5B7"/>
<path opacity="0.3" d="M18.35 18H3.65C2.91269 18 2.20559 17.7071 1.68424 17.1858C1.16289 16.6644 0.869995 15.9573 0.869995 15.22V5.78C0.869995 5.0427 1.16289 4.33559 1.68424 3.81424C2.20559 3.29289 2.91269 3 3.65 3H15.5C16.0129 2.99102 16.5182 3.12463 16.9596 3.38595C17.401 3.64726 17.7612 4.02602 18 4.48L20.85 9.86C21.0676 10.2587 21.1811 10.7058 21.18 11.16V15.22C21.1801 15.5893 21.1065 15.9549 20.9637 16.2955C20.8209 16.6361 20.6116 16.9448 20.3482 17.2036C20.0847 17.4625 19.7723 17.6662 19.4292 17.8029C19.0861 17.9396 18.7193 18.0066 18.35 18Z" fill="#A1A5B7"/>
<path d="M19.29 7H17.86C17.5948 7 17.3404 7.10536 17.1529 7.29289C16.9653 7.48043 16.86 7.73478 16.86 8V11C16.86 11.2652 16.9653 11.5196 17.1529 11.7071C17.3404 11.8946 17.5948 12 17.86 12H21.13V11.16C21.1311 10.7058 21.0176 10.2587 20.8 9.86L19.29 7Z" fill="#A1A5B7"/>
<path d="M6.87 20C7.97456 20 8.87 19.1046 8.87 18C8.87 16.8954 7.97456 16 6.87 16C5.76543 16 4.87 16.8954 4.87 18C4.87 19.1046 5.76543 20 6.87 20Z" fill="#A1A5B7"/>
<path d="M14.87 20C15.9746 20 16.87 19.1046 16.87 18C16.87 16.8954 15.9746 16 14.87 16C13.7654 16 12.87 16.8954 12.87 18C12.87 19.1046 13.7654 20 14.87 20Z" fill="#A1A5B7"/>
</svg>
