<svg width="24" height="24" viewBox="0 0 24 24" fill="none" xmlns="http://www.w3.org/2000/svg">
<path opacity="0.3" d="M16.32 6.14996H5.71C3.66102 6.14996 2 7.81099 2 9.85996V17.44C2 19.4889 3.66102 21.15 5.71 21.15H16.32C18.369 21.15 20.03 19.4889 20.03 17.44V9.85996C20.03 7.81099 18.369 6.14996 16.32 6.14996Z" fill="#A1A5B7"/>
<path d="M18.94 15.7H21.07C21.3167 15.7 21.5532 15.602 21.7276 15.4276C21.902 15.2532 22 15.0166 22 14.77V12.53C22 12.2833 21.902 12.0468 21.7276 11.8724C21.5532 11.698 21.3167 11.6 21.07 11.6H18.94C18.6731 11.5999 18.4089 11.6532 18.1629 11.7569C17.917 11.8605 17.6942 12.0123 17.5078 12.2033C17.3214 12.3944 17.1752 12.6208 17.0777 12.8692C16.9801 13.1177 16.9333 13.3832 16.94 13.65C16.9333 13.9168 16.9801 14.1823 17.0777 14.4307C17.1752 14.6792 17.3214 14.9056 17.5078 15.0966C17.6942 15.2877 17.917 15.4395 18.1629 15.5431C18.4089 15.6467 18.6731 15.7001 18.94 15.7Z" fill="#A1A5B7"/>
<path d="M2 9.84999C2.00265 8.86777 2.39469 7.92669 3.09016 7.23309C3.78564 6.53949 4.72778 6.14999 5.71 6.14999H15C14.9817 5.26667 14.6171 4.42587 13.985 3.80866C13.3528 3.19145 12.5035 2.84718 11.62 2.84999H5.39C4.94529 2.84868 4.50469 2.93513 4.09346 3.1044C3.68222 3.27368 3.30843 3.52244 2.99351 3.83643C2.67859 4.15042 2.42873 4.52348 2.25824 4.93421C2.08775 5.34494 2 5.78528 2 6.22999V9.84999Z" fill="#A1A5B7"/>
<path d="M11.89 11.33H5.72998C5.53107 11.33 5.3403 11.251 5.19965 11.1103C5.059 10.9697 4.97998 10.7789 4.97998 10.58C4.97998 10.3811 5.059 10.1903 5.19965 10.0497C5.3403 9.90904 5.53107 9.83002 5.72998 9.83002H11.89C12.0889 9.83002 12.2797 9.90904 12.4203 10.0497C12.561 10.1903 12.64 10.3811 12.64 10.58C12.64 10.7789 12.561 10.9697 12.4203 11.1103C12.2797 11.251 12.0889 11.33 11.89 11.33Z" fill="#A1A5B7"/>
</svg>
