<svg width="50" height="50" viewBox="0 0 50 50" fill="none" xmlns="http://www.w3.org/2000/svg">
<path d="M12.5 0C10.7812 0 9.375 1.40625 9.375 3.125V46.875C9.375 48.5938 10.7812 50 12.5 50H43.75C45.4688 50 46.875 48.5938 46.875 46.875V12.5L34.375 0H12.5Z" fill="#E2E5E7"/>
<path d="M37.5 12.5H46.875L34.375 0V9.375C34.375 11.0938 35.7812 12.5 37.5 12.5Z" fill="#B0B7BD"/>
<path d="M46.875 21.875L37.5 12.5H46.875V21.875Z" fill="#CAD1D8"/>
<path d="M40.625 40.625C40.625 41.4844 39.9219 42.1875 39.0625 42.1875H4.6875C3.82812 42.1875 3.125 41.4844 3.125 40.625V25C3.125 24.1406 3.82812 23.4375 4.6875 23.4375H39.0625C39.9219 23.4375 40.625 24.1406 40.625 25V40.625Z" fill="#84BD5A"/>
<path d="M14.0952 31.8547L16.2687 29.1313C16.9187 28.2813 18.1812 29.3673 17.4687 30.1798C16.7202 31.0673 15.9327 32.0297 15.1827 33.0157L17.7312 36.1891C18.4187 37.1266 17.0452 38.0251 16.3702 37.1001L14.0702 34.1516L11.8093 37.1641C11.1718 38.0751 9.7593 37.0516 10.4718 36.2016L12.9827 33.0157C12.1952 32.0282 11.4327 31.0673 10.6718 30.1798C9.88586 29.2423 11.3468 28.2813 11.9218 29.1579L14.0952 31.8547Z" fill="white"/>
<path d="M19.2734 29.6047C19.2734 29.1922 19.6234 28.8422 20.0609 28.8422C20.4609 28.8422 20.7984 29.1938 20.7984 29.6047V35.8641H24.1969C25.4203 35.8641 25.4469 37.5 24.1969 37.5H20.0625C19.625 37.5 19.275 37.1891 19.275 36.7391V29.6047H19.2734Z" fill="white"/>
<path d="M26.5655 30.7297C26.853 28.3047 30.5124 27.8688 32.2374 29.1938C33.0874 29.8797 32.1874 30.9672 31.4374 30.4172C30.5124 29.8313 28.4139 29.5563 28.1514 30.8531C27.8139 32.9031 33.2483 31.7297 33.1608 35.0531C33.0733 38.2266 28.4764 38.3 26.7514 36.8766C26.3374 36.5391 26.3514 35.9906 26.5764 35.6516C26.9014 35.3281 27.2624 35.2156 27.6889 35.5656C28.7124 36.2641 31.3499 36.7891 31.5358 35.0141C31.3749 33.1672 26.178 34.2781 26.5655 30.7297Z" fill="white"/>
<path d="M39.0625 42.1875H9.375V43.75H39.0625C39.9219 43.75 40.625 43.0469 40.625 42.1875V40.625C40.625 41.4844 39.9219 42.1875 39.0625 42.1875Z" fill="#CAD1D8"/>
</svg>
