<svg width="29" height="32" viewBox="0 0 29 32" fill="none" xmlns="http://www.w3.org/2000/svg">
<path d="M9.30423 13.8657V12.887C8.9645 12.8332 8.62136 12.8037 8.27743 12.7988C4.94769 12.7917 1.99979 14.9495 0.999866 18.1255C-5.68628e-05 21.3015 1.18024 24.7589 3.91334 26.6605C2.9111 25.5879 2.24074 24.2481 1.98317 22.8029C1.72561 21.3577 1.89184 19.8688 2.46181 18.516C3.03178 17.1632 3.98112 16.0043 5.19524 15.1791C6.40937 14.3539 7.83637 13.8978 9.30401 13.8658L9.30423 13.8657Z" fill="#25F4EE"/>
<path d="M9.48889 24.9519C11.3506 24.9493 12.8808 23.4827 12.9624 21.6228V5.02563H15.9944C15.9326 4.67882 15.903 4.32701 15.9063 3.97473L11.759 3.97473V20.5559C11.69 22.4253 10.1561 23.906 8.28549 23.909C7.7265 23.9043 7.17662 23.7668 6.68115 23.5079C7.00227 23.9528 7.424 24.3155 7.91193 24.5665C8.39987 24.8174 8.94021 24.9495 9.48889 24.9519ZM21.6579 10.6569V9.73437C20.542 9.73481 19.4508 9.40552 18.5214 8.78787C19.3361 9.73503 20.4371 10.3911 21.6579 10.6569Z" fill="#25F4EE"/>
<path d="M18.5214 8.78786C17.6058 7.7453 17.1011 6.40505 17.1015 5.01752H15.9944C16.1374 5.78467 16.4352 6.51464 16.8697 7.16287C17.3041 7.81111 17.8661 8.36402 18.5214 8.78786ZM8.27747 16.9461C7.50101 16.95 6.74816 17.2134 6.1386 17.6944C5.52904 18.1754 5.09777 18.8463 4.91335 19.6006C4.72893 20.3548 4.80194 21.1491 5.12078 21.8571C5.43962 22.5651 5.98599 23.1461 6.67302 23.5079C6.29739 22.9893 6.07245 22.3769 6.02304 21.7384C5.97363 21.0999 6.10169 20.4602 6.39306 19.89C6.68443 19.3197 7.12777 18.8411 7.6741 18.507C8.22043 18.1729 8.84848 17.9964 9.48887 17.9969C9.83701 18.0014 10.1827 18.0556 10.5156 18.1578V13.9379C10.1757 13.8869 9.83256 13.8601 9.48887 13.8577H9.30427V17.0663C8.96967 16.9766 8.62377 16.9361 8.27747 16.9461Z" fill="#FE2C55"/>
<path d="M21.6578 10.6569V13.8657C19.592 13.8616 17.5797 13.2077 15.9062 11.9965V20.4275C15.8973 24.6345 12.4844 28.0403 8.27743 28.0403C6.71499 28.0431 5.19018 27.561 3.91333 26.6605C4.95452 27.7804 6.30883 28.5608 7.79985 28.9C9.29088 29.2392 10.8495 29.1216 12.2727 28.5624C13.6959 28.0032 14.9177 27.0283 15.779 25.7648C16.6403 24.5014 17.1011 23.0078 17.1015 21.4786V13.0715C18.7807 14.2747 20.7953 14.9201 22.8611 14.9166V10.7849C22.4567 10.7837 22.0534 10.7408 21.6578 10.6569Z" fill="#FE2C55"/>
<path d="M15.9062 20.4275V11.9965C17.5848 13.2008 19.5999 13.8463 21.6658 13.8416V10.6329C20.4453 10.3751 19.3417 9.72758 18.5214 8.78786C17.8661 8.36402 17.3041 7.81111 16.8697 7.16287C16.4352 6.51464 16.1374 5.78467 15.9944 5.01752H12.9623V21.623C12.9328 22.3458 12.6788 23.0415 12.2357 23.6133C11.7927 24.1852 11.1824 24.6048 10.4899 24.8139C9.79736 25.0229 9.05689 25.0111 8.3714 24.7799C7.68591 24.5488 7.08944 24.1099 6.66489 23.5241C5.97774 23.1624 5.43125 22.5813 5.11233 21.8733C4.79341 21.1653 4.72035 20.3709 4.90479 19.6166C5.08922 18.8623 5.52056 18.1913 6.1302 17.7103C6.73985 17.2293 7.4928 16.9659 8.26934 16.9621C8.6176 16.9652 8.96354 17.0192 9.29614 17.1225V13.9138C7.82061 13.9388 6.38423 14.3926 5.16215 15.2198C3.94007 16.0471 2.98508 17.212 2.41362 18.5726C1.84217 19.9332 1.67894 21.4307 1.94383 22.8825C2.20873 24.3343 2.89031 25.6776 3.90546 26.7487C5.19485 27.6195 6.72184 28.0706 8.27745 28.0403C12.4844 28.0403 15.8973 24.6345 15.9062 20.4275Z" fill="black"/>
</svg>
